<?xml version="1.0" encoding="UTF-8" standalone="no"?>
<!-- Created with Inkscape (http://www.inkscape.org/) -->

<svg
   xmlns:dc="http://purl.org/dc/elements/1.1/"
   xmlns:cc="http://creativecommons.org/ns#"
   xmlns:rdf="http://www.w3.org/1999/02/22-rdf-syntax-ns#"
   xmlns:svg="http://www.w3.org/2000/svg"
   xmlns="http://www.w3.org/2000/svg"
   xmlns:sodipodi="http://sodipodi.sourceforge.net/DTD/sodipodi-0.dtd"
   xmlns:inkscape="http://www.inkscape.org/namespaces/inkscape"
   width="210mm"
   height="297mm"
   viewBox="0 0 210 297"
   version="1.1"
   id="svg8"
   inkscape:version="0.92.2 5c3e80d, 2017-08-06"
   sodipodi:docname="mapTemplate.svg">
  <defs
     id="defs2" />
  <sodipodi:namedview
     id="base"
     pagecolor="#ffffff"
     bordercolor="#666666"
     borderopacity="1.0"
     inkscape:pageopacity="0.0"
     inkscape:pageshadow="2"
     inkscape:zoom="3.959798"
     inkscape:cx="-129.97241"
     inkscape:cy="577.24438"
     inkscape:document-units="mm"
     inkscape:current-layer="layer1"
     showgrid="true"
     inkscape:window-width="1440"
     inkscape:window-height="791"
     inkscape:window-x="0"
     inkscape:window-y="1"
     inkscape:window-maximized="1">
    <inkscape:grid
       type="xygrid"
       id="grid10" />
  </sodipodi:namedview>
  <metadata
     id="metadata5">
    <rdf:RDF>
      <cc:Work
         rdf:about="">
        <dc:format>image/svg+xml</dc:format>
        <dc:type
           rdf:resource="http://purl.org/dc/dcmitype/StillImage" />
        <dc:title></dc:title>
      </cc:Work>
    </rdf:RDF>
  </metadata>
  <g
     inkscape:label="Layer 1"
     inkscape:groupmode="layer"
     id="layer1">
    <path
       style="fill:none;stroke:#000000;stroke-width:0.26458332px;stroke-linecap:butt;stroke-linejoin:miter;stroke-opacity:1"
       d="m 0,147.24583 h 2.6458333 v -1.32291 h 2.6458333 v 1.32291 h 1.5875 v 1.5875 h 2.38125 v -1.5875 h 6.3499994 v -1.5875 h 2.645834 v 1.5875 H 22.225 c 0,0 0,0 0,0 h 3.96875 v -1.5875 h 6.085417 v -1.5875 h 4.7625 v -1.5875 h 2.38125 v 6.87917 h 5.55625 v -0.52917 H 78.58125 v -1.5875 h 10.054167 v 1.5875 h 3.96875 v -1.32291 h 2.38125 v 2.91041 h 2.116666 v -1.32291 h 2.38125 v -1.5875 h 1.852087 v 0.26458 h 7.14375 v -2.38125 h 1.85208 v 2.38125 h 1.32292 4.23333 v -1.85208 h 2.11667 v 1.85208 h 4.49791 v 2.38125 h 2.38125 v -1.32292 h 1.32292 v -1.32291 h 3.96875 v -2.11667 h 2.91042 v 2.11667 h 2.38125 v -1.5875 h 2.11666 v 3.96875 h 2.64584 v -1.85209 h 4.49791 v -2.11666 h 2.64584 v 2.91041 h 3.96875 v -1.85208 h 3.175 v 1.5875 h 2.11666 v -2.11667 h 3.96875 V 144.6 h 2.64584 v -2.11667 h 3.175 v 3.175 h 3.43958 v -1.5875 h 1.85208 v 1.32292 h 2.11667 v -1.85208 h 1.85208 v 2.38125 h 1.5875 v -2.11667 h 2.11667 v 2.38125 h 2.11667 v -2.11667 h 2.11666 v 2.91042 0 2.38125 h 2.11667 v 0 h 5.55625 v -2.91042 h 2.11667 v 2.38125 h 1.85208 v -3.70416 h 5.55625 l 0,3.175 H 203.2 v -2.11667 h 3.70417 v 0 h 3.175"
       id="path14"
       inkscape:connector-curvature="0" />
    <path
       style="fill:none;stroke:#000000;stroke-width:0.26458332px;stroke-linecap:butt;stroke-linejoin:miter;stroke-opacity:1"
       d="m 42.333333,140.89583 h 1.852083 v -1.85208 h 2.645833 v 2.91042 h 3.439584 v -2.11667 h 2.116666 v -1.85208 h 2.38125 v 3.96875 h 2.116667 v -1.5875 h 1.852083 v 1.5875 h 1.852084 v -1.5875 h 2.38125 v 1.5875 h 2.645833 v -3.175 h 2.116666 v 2.64583 h 2.910417 v -1.85208 h 2.645833 v 1.85208 h 2.38125 v -1.5875 h 2.116667 v 1.5875 h 7.9375"
       id="path16"
       inkscape:connector-curvature="0" />
    <path
       style="fill:#ff0000;stroke:#000000;stroke-width:0.26458332px;stroke-linecap:butt;stroke-linejoin:miter;stroke-opacity:1"
       d="M 0,147.51042 H 210.34375"
       id="path10"
       inkscape:connector-curvature="0" />
  </g>
</svg>
