<svg id="Layer_1" data-name="Layer 1" xmlns="http://www.w3.org/2000/svg" viewBox="0 0 203 66"><defs><style>.cls-1{fill:#7d59ff;stroke:#000;stroke-miterlimit:10;}.cls-2{fill:#f60022;}</style></defs><title>statsbutton</title><rect class="cls-1" x="0.5" y="0.5" width="202" height="65" rx="12" ry="12"/><path class="cls-2" d="M337.6,203.82a5.46,5.46,0,0,1-.81,3,6.21,6.21,0,0,1-2.17,2.09,10,10,0,0,1-2.86,1.1,15.7,15.7,0,0,1-3.57.38c-.71,0-1.44,0-2.2-.07l-1.32-.08-.14-2.39,1.3.12c.71.06,1.54.09,2.5.09a15,15,0,0,0,2.28-.23,8,8,0,0,0,2.14-.6,4.22,4.22,0,0,0,1.5-1.16,2.74,2.74,0,0,0,.53-1.73,3.25,3.25,0,0,0-.53-1.88,5.26,5.26,0,0,0-1.73-1.49,21.73,21.73,0,0,0-2-1,23.08,23.08,0,0,1-2.24-1.2,6.69,6.69,0,0,1-2.41-2.25,5.52,5.52,0,0,1-.07-5.36,6.65,6.65,0,0,1,1.7-1.92,7.3,7.3,0,0,1,2.61-1.19,13.35,13.35,0,0,1,3.41-.4c.69,0,1.38,0,2.09.06l1.2.07.24,2.41L335.8,190c-.7-.06-1.58-.1-2.62-.1a9.24,9.24,0,0,0-1.92.21,5.91,5.91,0,0,0-1.73.64,3.45,3.45,0,0,0-1.13,1.06,2.86,2.86,0,0,0,0,3.16,5.3,5.3,0,0,0,1.83,1.56c.45.27,1.05.59,1.8.95s1.48.75,2.2,1.17a7.47,7.47,0,0,1,2.5,2.25A5.14,5.14,0,0,1,337.6,203.82Z" transform="translate(-257 -168)"/><path class="cls-2" d="M351.89,208l-.3,2.11-.57,0-.79,0a8.06,8.06,0,0,1-5.15-1.42,5.3,5.3,0,0,1-1.74-4.36c0-1.23,0-2.55,0-4s0-3.15,0-5.23H340.6v-1.94h2.94v-3.94H346v3.94h5.94v1.94H346q0,.34,0,2.07c0,1.16,0,2,0,2.56V204a3.82,3.82,0,0,0,1.16,3.11,5.56,5.56,0,0,0,3.59,1h1.24Z" transform="translate(-257 -168)"/><path class="cls-2" d="M367.63,200.61c0,2.75,0,5,0,6.71s0,2.66,0,2.79l-1.55.12c-.92.08-2.1.11-3.55.11a15,15,0,0,1-2.74-.25,9.35,9.35,0,0,1-2.37-.71,5.57,5.57,0,0,1-2.15-1.68,4,4,0,0,1-.82-2.55,4.09,4.09,0,0,1,1-2.73,6.74,6.74,0,0,1,2.69-1.87,15.73,15.73,0,0,1,2.88-.81,37.58,37.58,0,0,1,4.11-.54,4.39,4.39,0,0,0-.64-2.12,3.36,3.36,0,0,0-1.61-1.26,7.06,7.06,0,0,0-1.63-.43,16,16,0,0,0-2.09-.12c-.5,0-.92,0-1.27,0l-1.42.08.26-2.2,1-.06c.49,0,1.17,0,2,0a13.72,13.72,0,0,1,3.49.4,6.18,6.18,0,0,1,2.55,1.32,5.49,5.49,0,0,1,1.43,2.14A10.83,10.83,0,0,1,367.63,200.61Zm-2.54,4v-1.43c0-.58,0-1.24,0-2-.48,0-1.34.11-2.55.29a14,14,0,0,0-3.07.73,5,5,0,0,0-1.66,1.05,2.32,2.32,0,0,0-.72,1.73,2.6,2.6,0,0,0,.62,1.81,3.76,3.76,0,0,0,1.67,1.06,9.16,9.16,0,0,0,1.8.41,17.42,17.42,0,0,0,2.09.12c.22,0,.49,0,.81,0l1,0c0-.08,0-.44,0-1.1S365.09,205.72,365.09,204.62Z" transform="translate(-257 -168)"/><path class="cls-2" d="M382.69,208l-.3,2.11-.57,0-.79,0a8,8,0,0,1-5.15-1.42,5.3,5.3,0,0,1-1.74-4.36c0-1.23,0-2.55,0-4s0-3.15,0-5.23H371.4v-1.94h2.94v-3.94h2.4v3.94h5.95v1.94h-5.95c0,.23,0,.92,0,2.07s0,2,0,2.56V204a3.79,3.79,0,0,0,1.17,3.11,5.55,5.55,0,0,0,3.58,1h1.25Z" transform="translate(-257 -168)"/><path class="cls-2" d="M396,205.21a4,4,0,0,1-.6,2.19,4.6,4.6,0,0,1-1.57,1.56,7.68,7.68,0,0,1-2.4,1,13.34,13.34,0,0,1-3.07.32c-.54,0-1.1,0-1.69-.07l-1-.09-.1-2.18,1.15.09c.67,0,1.34.08,2,.08a13.18,13.18,0,0,0,1.49-.1,5.2,5.2,0,0,0,1.52-.37,3,3,0,0,0,1.22-.89,2.06,2.06,0,0,0,.4-1.28,1.68,1.68,0,0,0-.35-1.11,4.27,4.27,0,0,0-1-.82,11.85,11.85,0,0,0-1.82-.95,18.09,18.09,0,0,1-1.93-1,5.18,5.18,0,0,1-1.7-1.61,3.89,3.89,0,0,1-.59-2.16,3.79,3.79,0,0,1,.67-2.21,5,5,0,0,1,1.81-1.58,6.36,6.36,0,0,1,2.17-.7,15.35,15.35,0,0,1,2.3-.18c.68,0,1.23,0,1.66,0l.75,0,.18,2.21-1-.07c-.6,0-1.27-.06-2-.06a7.52,7.52,0,0,0-1.45.13,4.2,4.2,0,0,0-1.18.38,2.37,2.37,0,0,0-1,.88,1.88,1.88,0,0,0-.31,1,1.64,1.64,0,0,0,.43,1.14,4.05,4.05,0,0,0,1,.81,19.23,19.23,0,0,0,1.86,1c.79.37,1.36.66,1.72.88a6,6,0,0,1,1.77,1.63A3.72,3.72,0,0,1,396,205.21Z" transform="translate(-257 -168)"/></svg>