<svg id="Layer_1" data-name="Layer 1" xmlns="http://www.w3.org/2000/svg" viewBox="0 0 203 66"><defs><style>.cls-1{fill:#7d59ff;stroke:#000;stroke-miterlimit:10;}.cls-2{fill:#f60022;}</style></defs><title>return2menu</title><rect class="cls-1" x="0.5" y="0.5" width="202" height="65" rx="12" ry="12"/><path class="cls-2" d="M468,394.19a19,19,0,0,0-2.07.67c-.93.35-2,.81-3.22,1.38,0,.09,0,.5,0,1.23s0,1.41,0,2c0,1,0,2.11,0,3.44s0,2.05,0,2.2h-1.95c0-.14,0-.59,0-1.37s0-2.11,0-4c0-.76,0-1.82,0-3.19s0-2.65,0-3.86h1.91v1.87h0a25.9,25.9,0,0,1,2.75-1.36,15.58,15.58,0,0,1,2.16-.79Z" transform="translate(-442.57 -366)"/><path class="cls-2" d="M480.05,398.49h-8.9a5.42,5.42,0,0,0,.56,2.39,4.44,4.44,0,0,0,1.66,1.79,5.56,5.56,0,0,0,1.63.69,9.18,9.18,0,0,0,2.19.22c.46,0,.89,0,1.28,0l.72-.05-.22,1.63-.65,0c-.37,0-.81,0-1.31,0a10.35,10.35,0,0,1-3.42-.51,6.54,6.54,0,0,1-2.4-1.4,6.43,6.43,0,0,1-1.36-1.91,6,6,0,0,1-.56-2.59,7.22,7.22,0,0,1,.42-2.53,6.91,6.91,0,0,1,1.26-2.1,4.81,4.81,0,0,1,1.8-1.28,5.83,5.83,0,0,1,4.26-.11,4,4,0,0,1,1.54,1,5.1,5.1,0,0,1,1.11,1.93A8.56,8.56,0,0,1,480.05,398.49Zm-1.9-1.37a4.09,4.09,0,0,0-1-2.39,3,3,0,0,0-2.23-.86,3.21,3.21,0,0,0-2.3.88,4.69,4.69,0,0,0-1.28,2.37Z" transform="translate(-442.57 -366)"/><path class="cls-2" d="M490.08,403.63l-.23,1.56a3,3,0,0,1-.42,0l-.59,0a5.93,5.93,0,0,1-3.81-1.05,3.9,3.9,0,0,1-1.29-3.22c0-.91,0-1.88,0-2.92s0-2.33,0-3.86H481.7v-1.44h2.18v-2.91h1.79v2.91h4.41v1.44h-4.41c0,.17,0,.68,0,1.53s0,1.48,0,1.89v3a2.82,2.82,0,0,0,.86,2.3,4.17,4.17,0,0,0,2.66.7h.93Z" transform="translate(-442.57 -366)"/><path class="cls-2" d="M503.33,405.15h-1.88v-1.42h0a18.57,18.57,0,0,1-2.15,1.16,6.09,6.09,0,0,1-2.53.59,3.51,3.51,0,0,1-2.66-1,3.94,3.94,0,0,1-1-2.83c0-.65,0-1.43,0-2.33s0-1.56,0-2c0-.74,0-1.66,0-2.75s0-1.71,0-1.85h1.94c0,.11,0,.7,0,1.77s0,1.92,0,2.56,0,1.27,0,2.11,0,1.44,0,1.79a3.75,3.75,0,0,0,.5,2.12,1.78,1.78,0,0,0,1.55.68,6,6,0,0,0,2.41-.59,12.63,12.63,0,0,0,1.93-1c0-.1,0-.55,0-1.36s0-1.81,0-3c0-.86,0-1.88,0-3.08s0-1.85,0-2h1.94c0,.14,0,.6,0,1.38s0,2.11,0,4c0,1.06,0,2,0,2.78S503.32,403.11,503.33,405.15Z" transform="translate(-442.57 -366)"/><path class="cls-2" d="M515,394.19a19,19,0,0,0-2.07.67c-.94.35-2,.81-3.22,1.38,0,.09,0,.5,0,1.23s0,1.41,0,2c0,1,0,2.11,0,3.44s0,2.05,0,2.2h-1.94c0-.14,0-.59,0-1.37s0-2.11,0-4c0-.76,0-1.82,0-3.19s0-2.65,0-3.86h1.91v1.87h0a25.78,25.78,0,0,1,2.74-1.36,16.1,16.1,0,0,1,2.17-.79Z" transform="translate(-442.57 -366)"/><path class="cls-2" d="M527.76,405.15h-2c0-.23,0-1,0-2.27s0-2.07,0-2.38,0-1.05,0-1.88,0-1.43,0-1.82a3.34,3.34,0,0,0-.55-2,2.12,2.12,0,0,0-1.74-.62,5.16,5.16,0,0,0-1.86.45,15.1,15.1,0,0,0-2.24,1.12c0,.09,0,.58,0,1.46s0,1.69,0,2.42c0,.95,0,2.09,0,3.43s0,2,0,2.11h-1.94s0-.56,0-1.5,0-2.35,0-4.21c0-.86,0-1.87,0-3s0-2.38,0-3.68h1.92v1.44a17.24,17.24,0,0,1,2.87-1.37,6.25,6.25,0,0,1,1.92-.39,3.36,3.36,0,0,1,2.53,1,3.75,3.75,0,0,1,1,2.7c0,1,0,1.92,0,2.67s0,1.36,0,1.82c0,.75,0,1.68,0,2.79S527.76,405.1,527.76,405.15Z" transform="translate(-442.57 -366)"/><path class="cls-2" d="M545.26,403.63l-.22,1.56a3.16,3.16,0,0,1-.43,0l-.58,0a6,6,0,0,1-3.82-1.05,3.9,3.9,0,0,1-1.29-3.22c0-.91,0-1.88,0-2.92s0-2.33,0-3.86h-2.07v-1.44h2.18v-2.91h1.78v2.91h4.41v1.44h-4.41c0,.17,0,.68,0,1.53s0,1.48,0,1.89v3a2.79,2.79,0,0,0,.86,2.3,4.15,4.15,0,0,0,2.66.7h.92Z" transform="translate(-442.57 -366)"/><path class="cls-2" d="M559.32,399a7.38,7.38,0,0,1-.51,2.72,6.08,6.08,0,0,1-1.47,2.22,5.57,5.57,0,0,1-4.05,1.58,6,6,0,0,1-2.22-.4,5.48,5.48,0,0,1-1.85-1.17,6.06,6.06,0,0,1-1.44-2.21,7.53,7.53,0,0,1-.51-2.77,7.45,7.45,0,0,1,.43-2.59,6.19,6.19,0,0,1,1.36-2.13,5.78,5.78,0,0,1,1.92-1.32,6.11,6.11,0,0,1,2.32-.46,6,6,0,0,1,2.32.43,5.24,5.24,0,0,1,1.85,1.27,6.15,6.15,0,0,1,1.39,2.17A7.36,7.36,0,0,1,559.32,399Zm-2,.08a6.84,6.84,0,0,0-.38-2.24,4.45,4.45,0,0,0-1.16-1.84,3.35,3.35,0,0,0-1.14-.72,3.78,3.78,0,0,0-1.37-.25,3.72,3.72,0,0,0-1.48.27,3.56,3.56,0,0,0-1.18.85,4.64,4.64,0,0,0-1,1.69,6.2,6.2,0,0,0-.37,2.13,6.53,6.53,0,0,0,.38,2.3,4.37,4.37,0,0,0,1.23,1.81,3.27,3.27,0,0,0,1.11.66,3.91,3.91,0,0,0,1.33.22,3.8,3.8,0,0,0,1.44-.27,3.47,3.47,0,0,0,1.18-.78,4.82,4.82,0,0,0,1.07-1.72A6,6,0,0,0,557.35,399Z" transform="translate(-442.57 -366)"/><path class="cls-2" d="M586.67,405.15h-1.94c0-.09,0-.66,0-1.71s0-2.05,0-3c0-.37,0-1,0-1.81s0-1.47,0-1.89a3,3,0,0,0-.58-2,2.27,2.27,0,0,0-1.7-.57,5,5,0,0,0-1.6.34,11.91,11.91,0,0,0-2.1,1v.24c0,.13,0,.28,0,.48,0,.66,0,1.33,0,2s0,1.33,0,2q0,2,0,3.42t0,1.5h-2c0-.09,0-.58,0-1.48s0-2,0-3.19v-1.86c0-.83,0-1.44,0-1.83a6.79,6.79,0,0,0-.1-1,2.27,2.27,0,0,0-.32-.84,1.62,1.62,0,0,0-.67-.57,2.88,2.88,0,0,0-1.15-.19,4.18,4.18,0,0,0-1.62.41,15.36,15.36,0,0,0-2.11,1.15c0,.14,0,.66,0,1.56s0,1.64,0,2.21c0,1,0,2.14,0,3.5s0,2.08,0,2.16H569c0-.06,0-.54,0-1.43s0-2.35,0-4.4c0-.68,0-1.58,0-2.72s0-2.42,0-3.86h1.92v1.41h0A12.84,12.84,0,0,1,573,393a5.5,5.5,0,0,1,2.21-.58,3.72,3.72,0,0,1,2,.51,2.91,2.91,0,0,1,1.15,1.27h0a15.62,15.62,0,0,1,2.61-1.32,5.68,5.68,0,0,1,2-.46,3.5,3.5,0,0,1,2.65,1,3.67,3.67,0,0,1,1,2.67c0,.86,0,1.59,0,2.19s0,1.22,0,1.88q0,2.06,0,3.48C586.66,404.58,586.67,405.09,586.67,405.15Z" transform="translate(-442.57 -366)"/><path class="cls-2" d="M600.71,398.49h-8.9a5.28,5.28,0,0,0,.55,2.39,4.44,4.44,0,0,0,1.66,1.79,5.56,5.56,0,0,0,1.63.69,9.18,9.18,0,0,0,2.19.22c.46,0,.89,0,1.28,0l.72-.05-.22,1.63-.65,0c-.37,0-.8,0-1.31,0a10.35,10.35,0,0,1-3.42-.51,6.62,6.62,0,0,1-2.4-1.4,6.43,6.43,0,0,1-1.36-1.91,6,6,0,0,1-.56-2.59,7.22,7.22,0,0,1,.42-2.53,6.91,6.91,0,0,1,1.26-2.1,4.81,4.81,0,0,1,1.8-1.28,5.83,5.83,0,0,1,4.26-.11,4,4,0,0,1,1.54,1,5.1,5.1,0,0,1,1.11,1.93A8.82,8.82,0,0,1,600.71,398.49Zm-1.91-1.37a4.09,4.09,0,0,0-1-2.39,3,3,0,0,0-2.22-.86,3.22,3.22,0,0,0-2.31.88,4.69,4.69,0,0,0-1.28,2.37Z" transform="translate(-442.57 -366)"/><path class="cls-2" d="M614.17,405.15h-1.94c0-.23,0-1,0-2.27s0-2.07,0-2.38,0-1.05,0-1.88,0-1.43,0-1.82a3.28,3.28,0,0,0-.54-2,2.16,2.16,0,0,0-1.75-.62,5.16,5.16,0,0,0-1.86.45,15.6,15.6,0,0,0-2.24,1.12c0,.09,0,.58,0,1.46s0,1.69,0,2.42c0,.95,0,2.09,0,3.43s0,2,0,2.11H604s0-.56,0-1.5,0-2.35,0-4.21v-3c0-1.15,0-2.38,0-3.68h1.92l0,1.41,0,0a16.52,16.52,0,0,1,2.87-1.37,6.2,6.2,0,0,1,1.91-.39,3.34,3.34,0,0,1,2.53,1,3.71,3.71,0,0,1,1,2.7c0,1,0,1.92,0,2.67s0,1.36,0,1.82q0,1.13,0,2.79C614.16,404.51,614.17,405.1,614.17,405.15Z" transform="translate(-442.57 -366)"/><path class="cls-2" d="M628.75,405.15h-1.89v-1.42h0a17.77,17.77,0,0,1-2.15,1.16,6.06,6.06,0,0,1-2.53.59,3.51,3.51,0,0,1-2.66-1,3.94,3.94,0,0,1-1-2.83c0-.65,0-1.43,0-2.33s0-1.56,0-2c0-.74,0-1.66,0-2.75s0-1.71,0-1.85h2q0,.17,0,1.77c0,1.07,0,1.92,0,2.56s0,1.27,0,2.11,0,1.44,0,1.79a3.75,3.75,0,0,0,.51,2.12,1.75,1.75,0,0,0,1.55.68,5.93,5.93,0,0,0,2.4-.59,11.71,11.71,0,0,0,1.93-1c0-.1,0-.55,0-1.36s0-1.81,0-3c0-.86,0-1.88,0-3.08s0-1.85,0-2h2q0,.21,0,1.38c0,.78,0,2.11,0,4,0,1.06,0,2,0,2.78S628.73,403.11,628.75,405.15Z" transform="translate(-442.57 -366)"/></svg>