<svg id="Layer_1" data-name="Layer 1" xmlns="http://www.w3.org/2000/svg" viewBox="0 0 203 66"><defs><style>.cls-1{fill:#7d59ff;stroke:#000;stroke-miterlimit:10;}.cls-2{fill:#f60022;}</style></defs><title>settingsbutton</title><rect class="cls-1" x="0.5" y="0.5" width="202" height="65" rx="12" ry="12"/><path class="cls-2" d="M320.6,203.82a5.46,5.46,0,0,1-.81,3,6.21,6.21,0,0,1-2.17,2.09,10,10,0,0,1-2.86,1.1,15.7,15.7,0,0,1-3.57.38c-.71,0-1.44,0-2.2-.07l-1.32-.08-.14-2.39,1.3.12c.71.06,1.54.09,2.5.09a15,15,0,0,0,2.28-.23,8,8,0,0,0,2.14-.6,4.22,4.22,0,0,0,1.5-1.16,2.74,2.74,0,0,0,.53-1.73,3.25,3.25,0,0,0-.53-1.88,5.26,5.26,0,0,0-1.73-1.49,21.73,21.73,0,0,0-2-1,23.08,23.08,0,0,1-2.24-1.2,6.69,6.69,0,0,1-2.41-2.25,5.52,5.52,0,0,1-.07-5.36,6.65,6.65,0,0,1,1.7-1.92,7.3,7.3,0,0,1,2.61-1.19,13.35,13.35,0,0,1,3.41-.4c.69,0,1.38,0,2.09.06l1.2.07.24,2.41L318.8,190c-.7-.06-1.58-.1-2.62-.1a9.24,9.24,0,0,0-1.92.21,5.91,5.91,0,0,0-1.73.64,3.45,3.45,0,0,0-1.13,1.06,2.86,2.86,0,0,0,0,3.16,5.3,5.3,0,0,0,1.83,1.56c.45.27,1.05.59,1.8.95s1.48.75,2.2,1.17a7.47,7.47,0,0,1,2.5,2.25A5.14,5.14,0,0,1,320.6,203.82Z" transform="translate(-257 -168)"/><path class="cls-2" d="M338.71,201.06h-12a7.37,7.37,0,0,0,.74,3.23,6.08,6.08,0,0,0,2.25,2.43,7.46,7.46,0,0,0,2.19.93,12.58,12.58,0,0,0,2.95.3c.63,0,1.21,0,1.74,0l1-.06-.3,2.2c-.09,0-.38,0-.88.06s-1.09,0-1.76,0a14,14,0,0,1-4.62-.69,8.28,8.28,0,0,1-5.07-4.49,8,8,0,0,1-.75-3.5,9.74,9.74,0,0,1,.56-3.42,9.42,9.42,0,0,1,1.69-2.84,6.64,6.64,0,0,1,2.44-1.74,7.65,7.65,0,0,1,3-.62,7.53,7.53,0,0,1,2.74.47,5.46,5.46,0,0,1,2.07,1.41,7,7,0,0,1,1.5,2.62A12.2,12.2,0,0,1,338.71,201.06Zm-2.57-1.86a5.52,5.52,0,0,0-1.41-3.23,4,4,0,0,0-3-1.17,4.34,4.34,0,0,0-3.11,1.19,6.31,6.31,0,0,0-1.72,3.21Z" transform="translate(-257 -168)"/><path class="cls-2" d="M352.22,208l-.3,2.11-.57,0-.79,0a8,8,0,0,1-5.14-1.42,5.28,5.28,0,0,1-1.75-4.36c0-1.23,0-2.55,0-4s0-3.15,0-5.23h-2.79v-1.94h2.94v-3.94h2.41v3.94h5.94v1.94h-5.94c0,.23,0,.92,0,2.07s0,2,0,2.56V204a3.82,3.82,0,0,0,1.16,3.11,5.58,5.58,0,0,0,3.59,1h1.24Z" transform="translate(-257 -168)"/><path class="cls-2" d="M365.55,208l-.29,2.11-.58,0-.79,0a8,8,0,0,1-5.14-1.42A5.31,5.31,0,0,1,357,204.4c0-1.23,0-2.55,0-4s0-3.15,0-5.23h-2.78v-1.94h2.93v-3.94h2.41v3.94h5.94v1.94h-5.94c0,.23,0,.92,0,2.07s0,2,0,2.56V204a3.82,3.82,0,0,0,1.16,3.11,5.58,5.58,0,0,0,3.59,1h1.24Z" transform="translate(-257 -168)"/><path class="cls-2" d="M372.71,190.06h-2.92V187.2h2.92Zm-.15,20h-2.62c0-.18,0-1.27,0-3.27s0-3.66,0-5v-3.76c0-1.36,0-3-.06-4.8h2.62q0,2.39-.06,4.47c0,1.39,0,2.63,0,3.71q0,3.87,0,6.21C372.55,209.23,372.56,210,372.56,210.08Z" transform="translate(-257 -168)"/><path class="cls-2" d="M392.58,210.08H390c0-.31,0-1.34,0-3.07s0-2.82,0-3.22c0-.58,0-1.43,0-2.55s0-2,0-2.47a4.49,4.49,0,0,0-.73-2.74,2.91,2.91,0,0,0-2.36-.83,7,7,0,0,0-2.5.6,20,20,0,0,0-3,1.53c0,.12,0,.78,0,2s0,2.29,0,3.27c0,1.29,0,2.84,0,4.65s.05,2.77.05,2.86H378.8c0-.08,0-.76,0-2s0-3.18,0-5.7c0-1.16,0-2.52,0-4.08s0-3.22-.06-5h2.59v1.94a22.7,22.7,0,0,1,3.88-1.85,8.37,8.37,0,0,1,2.58-.53,4.52,4.52,0,0,1,3.41,1.34,5,5,0,0,1,1.29,3.66c0,1.4,0,2.6,0,3.61s0,1.84,0,2.47c0,1,0,2.26,0,3.77S392.58,210,392.58,210.08Z" transform="translate(-257 -168)"/><path class="cls-2" d="M411.26,193.13c0,.24,0,1.34,0,3.28s0,3.81,0,5.57c0,1.19,0,2.41,0,3.65s0,2.37,0,3.4a8.59,8.59,0,0,1-1,4.45,7.07,7.07,0,0,1-2.76,2.57,13.32,13.32,0,0,1-3.44,1.16,24.61,24.61,0,0,1-4.91.42l-.27-2.11c1.3,0,2.46-.09,3.49-.21a11.62,11.62,0,0,0,2.8-.63,5.28,5.28,0,0,0,2.71-1.94,5.63,5.63,0,0,0,.8-2.93h-.8a18.78,18.78,0,0,1-4.07-.47,10.34,10.34,0,0,1-3.57-1.5,7.77,7.77,0,0,1-2.37-2.56,7.66,7.66,0,0,1-.92-3.9,6.84,6.84,0,0,1,1.28-4.1,9,9,0,0,1,3.42-2.82,11.67,11.67,0,0,1,3.33-1,27.2,27.2,0,0,1,4.36-.29h1.91ZM408.72,202c0-.8,0-1.79,0-3s0-2.44,0-3.73h-.43a16.46,16.46,0,0,0-2.7.19,11.57,11.57,0,0,0-2.43.75,5.62,5.62,0,0,0-2.59,2.14,5.78,5.78,0,0,0-.9,3.18,5.38,5.38,0,0,0,.89,3.12,6,6,0,0,0,2.38,2,10.8,10.8,0,0,0,2.35.77,12.92,12.92,0,0,0,2.83.3h.62c0-.13,0-.75,0-1.85S408.72,203.45,408.72,202Z" transform="translate(-257 -168)"/><path class="cls-2" d="M426.43,205.21a4,4,0,0,1-.6,2.19,4.57,4.57,0,0,1-1.56,1.56,7.88,7.88,0,0,1-2.4,1,13.34,13.34,0,0,1-3.07.32c-.54,0-1.11,0-1.69-.07l-1-.09-.1-2.18,1.16.09c.67,0,1.33.08,2,.08a13.48,13.48,0,0,0,1.49-.1,5.13,5.13,0,0,0,1.51-.37,2.93,2.93,0,0,0,1.23-.89,2.06,2.06,0,0,0,.4-1.28,1.73,1.73,0,0,0-.35-1.11,4.27,4.27,0,0,0-1-.82,11.85,11.85,0,0,0-1.82-.95,18.09,18.09,0,0,1-1.93-1A5.21,5.21,0,0,1,417,200a4,4,0,0,1-.58-2.16,3.79,3.79,0,0,1,.67-2.21,5,5,0,0,1,1.8-1.58,6.51,6.51,0,0,1,2.17-.7,15.48,15.48,0,0,1,2.31-.18c.67,0,1.23,0,1.66,0l.75,0,.18,2.21-1-.07c-.61,0-1.27-.06-2-.06a7.63,7.63,0,0,0-1.46.13,4.23,4.23,0,0,0-1.17.38,2.37,2.37,0,0,0-1,.88,1.88,1.88,0,0,0-.31,1,1.64,1.64,0,0,0,.43,1.14,4.05,4.05,0,0,0,1,.81,19.23,19.23,0,0,0,1.86,1,17.57,17.57,0,0,1,1.71.88,5.91,5.91,0,0,1,1.78,1.63A3.72,3.72,0,0,1,426.43,205.21Z" transform="translate(-257 -168)"/></svg>