<svg id="Layer_1" data-name="Layer 1" xmlns="http://www.w3.org/2000/svg" viewBox="0 0 765 244"><defs><style>.cls-1{fill:#8b4d68;}.cls-1,.cls-2{stroke:#000;stroke-miterlimit:10;}.cls-2{fill:#23a4d0;}</style></defs><title>settings</title><rect class="cls-1" x="0.5" y="0.5" width="764" height="243" rx="12" ry="12"/><path class="cls-2" d="M351.83,256.52a14.32,14.32,0,0,1-1.46,6.65,12.68,12.68,0,0,1-3.91,4.62,16.35,16.35,0,0,1-5.17,2.45,23.25,23.25,0,0,1-6.46.83c-1.28,0-2.6-.05-4-.14s-2.16-.16-2.38-.19l-.24-5.3q.42.07,2.34.27a42.58,42.58,0,0,0,4.53.2,21.64,21.64,0,0,0,4.1-.51,12.5,12.5,0,0,0,3.87-1.33,8,8,0,0,0,2.72-2.58,7.08,7.08,0,0,0,.94-3.83,8.55,8.55,0,0,0-.94-4.18,10.59,10.59,0,0,0-3.14-3.3,39.71,39.71,0,0,0-3.66-2.32,39.29,39.29,0,0,1-4-2.65,14,14,0,0,1-4.37-5,14.9,14.9,0,0,1-.12-11.9,14,14,0,0,1,3.08-4.26,12.5,12.5,0,0,1,4.7-2.65,20.26,20.26,0,0,1,6.17-.88c1.25,0,2.5,0,3.77.13s2,.14,2.18.16l.42,5.34-2.19-.25a41.91,41.91,0,0,0-4.74-.22,13.67,13.67,0,0,0-3.46.46,9.3,9.3,0,0,0-3.14,1.42,7,7,0,0,0-2,2.35,7.18,7.18,0,0,0-.83,3.54,7.34,7.34,0,0,0,.88,3.48,10.84,10.84,0,0,0,3.31,3.45,38.47,38.47,0,0,0,3.26,2.12c1.35.8,2.67,1.66,4,2.6a14.86,14.86,0,0,1,4.52,5A13.36,13.36,0,0,1,351.83,256.52Z" transform="translate(-50 -123)"/><path class="cls-2" d="M384.55,250.4H362.87a19.35,19.35,0,0,0,1.35,7.17,12.92,12.92,0,0,0,4,5.4,12,12,0,0,0,4,2,18.08,18.08,0,0,0,5.33.68c1.14,0,2.19,0,3.14-.11l1.75-.14-.54,4.9-1.59.13q-1.35.09-3.18.09a21,21,0,0,1-8.35-1.53,15.59,15.59,0,0,1-5.83-4.22,19.47,19.47,0,0,1-3.32-5.75,21.2,21.2,0,0,1-1.36-7.77,26.42,26.42,0,0,1,1-7.6,22,22,0,0,1,3.06-6.3,12.23,12.23,0,0,1,4.39-3.87,11.79,11.79,0,0,1,5.45-1.36,11.42,11.42,0,0,1,4.94,1,10.16,10.16,0,0,1,3.75,3.14,16.84,16.84,0,0,1,2.7,5.8A32.85,32.85,0,0,1,384.55,250.4Zm-4.65-4.13a13.64,13.64,0,0,0-2.53-7.16,6.58,6.58,0,0,0-5.41-2.6,7.1,7.1,0,0,0-5.61,2.63,15.29,15.29,0,0,0-3.12,7.13Z" transform="translate(-50 -123)"/><path class="cls-2" d="M409,265.84l-.54,4.68c-.14,0-.49.05-1,.07s-1,0-1.42,0q-6.15,0-9.3-3.15t-3.15-9.67q0-4.09,0-8.77t.05-11.61h-5v-4.31h5.31v-8.73h4.35v8.73H409v4.31H398.23c0,.52,0,2-.05,4.61s0,4.44,0,5.67v9.14c0,3.19.7,5.5,2.1,6.91s3.56,2.12,6.48,2.12l1.29,0Z" transform="translate(-50 -123)"/><path class="cls-2" d="M433.05,265.84l-.54,4.68c-.14,0-.49.05-1,.07s-1,0-1.43,0q-6.15,0-9.3-3.15t-3.15-9.67q0-4.09,0-8.77t0-11.61h-5v-4.31H418v-8.73h4.35v8.73h10.74v4.31H422.31c0,.52,0,2,0,4.61s0,4.44,0,5.67v9.14c0,3.19.7,5.5,2.1,6.91s3.56,2.12,6.48,2.12l1.29,0Z" transform="translate(-50 -123)"/><path class="cls-2" d="M446,226H440.7v-6.34H446Zm-.27,44.44H441q0-.59.07-7.26c0-4.44,0-8.12,0-11q0-3.8,0-8.34c0-3,0-6.59-.1-10.67h4.74q-.06,5.31-.11,9.93t0,8.24q0,8.58.07,13.78C445.68,268.53,445.71,270.31,445.71,270.41Z" transform="translate(-50 -123)"/><path class="cls-2" d="M481.88,270.41h-4.74q0-1,.07-6.82c0-3.85.05-6.24.05-7.15,0-1.27,0-3.16,0-5.65s0-4.32,0-5.47q-.09-4.24-1.32-6.08t-4.26-1.85a10.86,10.86,0,0,0-4.53,1.33,34.14,34.14,0,0,0-5.46,3.39c0,.27,0,1.73,0,4.39s0,5.07,0,7.25q0,4.28.08,10.32t.07,6.34H457c0-.17,0-1.68.06-4.51s.06-7.06.06-12.66q0-3.87,0-9.07t-.11-11h4.68l0,4.24,0,.07a39.63,39.63,0,0,1,7-4.11,12.79,12.79,0,0,1,4.66-1.16,7.43,7.43,0,0,1,6.16,3c1.55,2,2.33,4.68,2.33,8.12q0,4.65-.05,8c0,2.25,0,4.07,0,5.47q0,3.36.07,8.38C481.85,268.48,481.88,270.24,481.88,270.41Z" transform="translate(-50 -123)"/><path class="cls-2" d="M515.62,232.79q0,.81,0,7.29t0,12.35q0,4,0,8.1c0,2.76,0,5.27,0,7.56q0,6.3-1.76,9.87a14.2,14.2,0,0,1-5,5.72,21.61,21.61,0,0,1-6.21,2.56,36.5,36.5,0,0,1-8.88.94l-.48-4.68a56.61,56.61,0,0,0,6.3-.46,18.7,18.7,0,0,0,5.07-1.42,9.89,9.89,0,0,0,4.89-4.3,14.51,14.51,0,0,0,1.44-6.5h-1.44a27.41,27.41,0,0,1-7.35-1.05,16.63,16.63,0,0,1-6.45-3.33,16.07,16.07,0,0,1-4.29-5.68,20.24,20.24,0,0,1-1.65-8.66,17.67,17.67,0,0,1,2.31-9.1,17.41,17.41,0,0,1,6.18-6.26,18.54,18.54,0,0,1,6-2.31,41.18,41.18,0,0,1,7.87-.64h3.45ZM511,252.37c0-1.77,0-4,0-6.62s0-5.41-.07-8.28h-.78a23.33,23.33,0,0,0-4.87.44,17.36,17.36,0,0,0-4.4,1.65,11,11,0,0,0-4.68,4.75,15.15,15.15,0,0,0-1.62,7.07,14,14,0,0,0,1.61,6.92,11.65,11.65,0,0,0,4.3,4.45,17.72,17.72,0,0,0,4.25,1.73,19.29,19.29,0,0,0,5.11.66H511c0-.29,0-1.66,0-4.1S511,255.71,511,252.37Z" transform="translate(-50 -123)"/><path class="cls-2" d="M543,259.61a10.67,10.67,0,0,1-1.08,4.87,9.86,9.86,0,0,1-2.82,3.46,12.88,12.88,0,0,1-4.35,2.12,20,20,0,0,1-5.54.72,29.37,29.37,0,0,1-3-.17l-1.78-.2-.18-4.83c.18,0,.87.1,2.08.21s2.41.16,3.61.16a20.66,20.66,0,0,0,2.7-.22,8,8,0,0,0,2.73-.81,5.64,5.64,0,0,0,2.22-2,5.35,5.35,0,0,0,.72-2.84,4.35,4.35,0,0,0-.63-2.45,8.4,8.4,0,0,0-1.74-1.82,19.92,19.92,0,0,0-3.28-2.12,30.3,30.3,0,0,1-3.5-2.16,9.86,9.86,0,0,1-4.13-8.36,9.78,9.78,0,0,1,4.47-8.4,10.27,10.27,0,0,1,3.92-1.57,23.27,23.27,0,0,1,4.16-.39c1.23,0,2.23,0,3,.08l1.35.07.33,4.9c-.14,0-.76-.05-1.85-.14s-2.29-.15-3.59-.15a11.78,11.78,0,0,0-2.63.29,7,7,0,0,0-2.12.85,4.83,4.83,0,0,0-1.85,1.95,5.09,5.09,0,0,0-.56,2.21,4.22,4.22,0,0,0,.79,2.55,7.81,7.81,0,0,0,1.83,1.8,38.15,38.15,0,0,0,3.37,2.1,27.82,27.82,0,0,1,3.09,2,11.73,11.73,0,0,1,3.2,3.61A9.51,9.51,0,0,1,543,259.61Z" transform="translate(-50 -123)"/></svg>
