<svg id="Layer_1" data-name="Layer 1" xmlns="http://www.w3.org/2000/svg" viewBox="0 0 765 244"><defs><style>.cls-1{fill:#8b4d68;}.cls-1,.cls-2{stroke:#000;stroke-miterlimit:10;}.cls-2{fill:#23a4d0;}</style></defs><title>statistics</title><rect class="cls-1" x="0.5" y="0.5" width="764" height="243" rx="12" ry="12"/><path class="cls-2" d="M351.83,256.52a14.32,14.32,0,0,1-1.46,6.65,12.68,12.68,0,0,1-3.91,4.62,16.35,16.35,0,0,1-5.17,2.45,23.25,23.25,0,0,1-6.46.83c-1.28,0-2.6-.05-4-.14s-2.16-.16-2.38-.19l-.24-5.3q.42.07,2.34.27a42.58,42.58,0,0,0,4.53.2,21.64,21.64,0,0,0,4.1-.51,12.5,12.5,0,0,0,3.87-1.33,8,8,0,0,0,2.72-2.58,7.08,7.08,0,0,0,.94-3.83,8.55,8.55,0,0,0-.94-4.18,10.59,10.59,0,0,0-3.14-3.3,39.71,39.71,0,0,0-3.66-2.32,39.29,39.29,0,0,1-4-2.65,14,14,0,0,1-4.37-5,14.9,14.9,0,0,1-.12-11.9,14,14,0,0,1,3.08-4.26,12.5,12.5,0,0,1,4.7-2.65,20.26,20.26,0,0,1,6.17-.88c1.25,0,2.5,0,3.77.13s2,.14,2.18.16l.42,5.34-2.19-.25a41.91,41.91,0,0,0-4.74-.22,13.67,13.67,0,0,0-3.46.46,9.3,9.3,0,0,0-3.14,1.42,7,7,0,0,0-2,2.35,7.18,7.18,0,0,0-.83,3.54,7.34,7.34,0,0,0,.88,3.48,10.84,10.84,0,0,0,3.31,3.45,38.47,38.47,0,0,0,3.26,2.12c1.35.8,2.67,1.66,4,2.6a14.86,14.86,0,0,1,4.52,5A13.36,13.36,0,0,1,351.83,256.52Z" transform="translate(-50 -123)"/><path class="cls-2" d="M377.65,265.84l-.54,4.68c-.14,0-.48.05-1,.07s-1,0-1.43,0q-6.13,0-9.29-3.15t-3.15-9.67q0-4.09,0-8.77t.05-11.61h-5v-4.31h5.31v-8.73h4.35v8.73h10.73v4.31H366.92c0,.52,0,2-.05,4.61s0,4.44,0,5.67v9.14c0,3.19.7,5.5,2.1,6.91s3.56,2.12,6.47,2.12l1.29,0Z" transform="translate(-50 -123)"/><path class="cls-2" d="M406.09,249.41q0,9.14,0,14.88t0,6.19l-2.79.28q-2.49.24-6.42.24a22.69,22.69,0,0,1-4.95-.55,15.22,15.22,0,0,1-4.29-1.59,10.89,10.89,0,0,1-3.88-3.72A11.44,11.44,0,0,1,384,253.4a12.83,12.83,0,0,1,4.87-4.14,24.83,24.83,0,0,1,5.2-1.79,53.25,53.25,0,0,1,7.43-1.2,11.47,11.47,0,0,0-1.17-4.71,6.52,6.52,0,0,0-2.91-2.8,10,10,0,0,0-2.94-.94,22.1,22.1,0,0,0-3.78-.28c-.9,0-1.66,0-2.29.07l-2.57.19.48-4.9,1.79-.13c.89-.06,2.1-.09,3.64-.09a20.41,20.41,0,0,1,6.31.9,10.42,10.42,0,0,1,4.61,2.93,12.63,12.63,0,0,1,2.58,4.73A29.27,29.27,0,0,1,406.09,249.41Zm-4.59,8.88v-3.17c0-1.28,0-2.75,0-4.42-.88.05-2.42.26-4.62.64A21.66,21.66,0,0,0,391.3,253a8.65,8.65,0,0,0-3,2.32,5.74,5.74,0,0,0-1.31,3.83,6.71,6.71,0,0,0,1.11,4,7,7,0,0,0,3,2.34,13.23,13.23,0,0,0,3.25.9,24,24,0,0,0,3.77.28c.4,0,.89,0,1.47,0l1.83-.07c0-.17,0-1,0-2.43S401.5,260.74,401.5,258.29Z" transform="translate(-50 -123)"/><path class="cls-2" d="M433.29,265.84l-.54,4.68c-.14,0-.49.05-1,.07s-1,0-1.42,0q-6.15,0-9.3-3.15t-3.15-9.67q0-4.09.05-8.77t0-11.61h-5v-4.31h5.31v-8.73h4.35v8.73h10.74v4.31H422.55c0,.52,0,2,0,4.61s-.05,4.44-.05,5.67v9.14c0,3.19.7,5.5,2.1,6.91s3.56,2.12,6.48,2.12l1.29,0Z" transform="translate(-50 -123)"/><path class="cls-2" d="M446.22,226h-5.28v-6.34h5.28ZM446,270.41h-4.74q0-.59.07-7.26c0-4.44.05-8.12.05-11q0-3.8,0-8.34c0-3,0-6.59-.1-10.67H446q-.06,5.31-.11,9.93t0,8.24q0,8.58.07,13.78C445.92,268.53,446,270.31,446,270.41Z" transform="translate(-50 -123)"/><path class="cls-2" d="M473.75,259.61a10.67,10.67,0,0,1-1.08,4.87,9.77,9.77,0,0,1-2.83,3.46,12.83,12.83,0,0,1-4.34,2.12,20,20,0,0,1-5.54.72,29.37,29.37,0,0,1-3-.17l-1.79-.2-.18-4.83c.18,0,.88.1,2.09.21s2.41.16,3.61.16a20.66,20.66,0,0,0,2.7-.22,8,8,0,0,0,2.73-.81,5.64,5.64,0,0,0,2.22-2,5.35,5.35,0,0,0,.72-2.84,4.35,4.35,0,0,0-.63-2.45,8.4,8.4,0,0,0-1.74-1.82,19.92,19.92,0,0,0-3.28-2.12,30.3,30.3,0,0,1-3.5-2.16,9.9,9.9,0,0,1-4.14-8.36,9.82,9.82,0,0,1,4.48-8.4,10.27,10.27,0,0,1,3.92-1.57,23.27,23.27,0,0,1,4.16-.39c1.22,0,2.23,0,3,.08l1.35.07.33,4.9c-.14,0-.76-.05-1.85-.14s-2.29-.15-3.59-.15a11.78,11.78,0,0,0-2.63.29,7,7,0,0,0-2.12.85,4.83,4.83,0,0,0-1.85,1.95,5.09,5.09,0,0,0-.56,2.21,4.22,4.22,0,0,0,.78,2.55,8,8,0,0,0,1.84,1.8,39.28,39.28,0,0,0,3.36,2.1,27.22,27.22,0,0,1,3.1,2,11.73,11.73,0,0,1,3.2,3.61A9.62,9.62,0,0,1,473.75,259.61Z" transform="translate(-50 -123)"/><path class="cls-2" d="M498.7,265.84l-.54,4.68c-.14,0-.48.05-1,.07s-1,0-1.43,0q-6.15,0-9.29-3.15t-3.15-9.67q0-4.09,0-8.77t.05-11.61h-5v-4.31h5.31v-8.73H488v8.73H498.7v4.31H488c0,.52,0,2-.05,4.61s0,4.44,0,5.67v9.14c0,3.19.7,5.5,2.09,6.91s3.56,2.12,6.48,2.12l1.29,0Z" transform="translate(-50 -123)"/><path class="cls-2" d="M511.63,226h-5.28v-6.34h5.28Zm-.27,44.44h-4.74q0-.59.08-7.26c0-4.44,0-8.12,0-11,0-2.53,0-5.31,0-8.34s-.05-6.59-.11-10.67h4.74q-.06,5.31-.11,9.93t0,8.24q0,8.58.07,13.78C511.33,268.53,511.36,270.31,511.36,270.41Z" transform="translate(-50 -123)"/><path class="cls-2" d="M542.64,265.62l-.36,4.94h-1.65a27.43,27.43,0,0,1-7.23-.91,20.18,20.18,0,0,1-6-2.67,16.71,16.71,0,0,1-5.67-6.45,19.45,19.45,0,0,1-2-8.95,18,18,0,0,1,6.72-14.19,19.07,19.07,0,0,1,6.46-3.26,27,27,0,0,1,7.78-1.12h1.23l.24,4.94h-.93a28.05,28.05,0,0,0-5.68.49,18.61,18.61,0,0,0-4.58,1.64,10.76,10.76,0,0,0-4.7,4.65,13.86,13.86,0,0,0-1.74,6.78,14.71,14.71,0,0,0,1.63,7.24,11.68,11.68,0,0,0,4.33,4.51,15.22,15.22,0,0,0,4.74,1.81,27.08,27.08,0,0,0,5.58.55h1.89Z" transform="translate(-50 -123)"/><path class="cls-2" d="M567.05,259.61a10.67,10.67,0,0,1-1.08,4.87,9.86,9.86,0,0,1-2.82,3.46,12.83,12.83,0,0,1-4.34,2.12,20,20,0,0,1-5.54.72,29.37,29.37,0,0,1-3-.17l-1.79-.2-.18-4.83c.18,0,.87.1,2.08.21s2.42.16,3.62.16a20.66,20.66,0,0,0,2.7-.22,8,8,0,0,0,2.73-.81,5.64,5.64,0,0,0,2.22-2,5.35,5.35,0,0,0,.72-2.84,4.35,4.35,0,0,0-.63-2.45,8.4,8.4,0,0,0-1.74-1.82,20.07,20.07,0,0,0-3.29-2.12,30.08,30.08,0,0,1-3.49-2.16,9.84,9.84,0,0,1-4.14-8.36,9.87,9.87,0,0,1,1.22-4.9,9.7,9.7,0,0,1,3.26-3.5,10.21,10.21,0,0,1,3.92-1.57,23.27,23.27,0,0,1,4.16-.39c1.22,0,2.22,0,3,.08l1.35.07.33,4.9c-.14,0-.75-.05-1.84-.14s-2.29-.15-3.6-.15a11.78,11.78,0,0,0-2.63.29,7,7,0,0,0-2.12.85,4.83,4.83,0,0,0-1.85,1.95,5.07,5.07,0,0,0-.55,2.21,4.22,4.22,0,0,0,.78,2.55,7.81,7.81,0,0,0,1.83,1.8c.83.59,2,1.29,3.37,2.1a29.19,29.19,0,0,1,3.1,2,11.73,11.73,0,0,1,3.2,3.61A9.61,9.61,0,0,1,567.05,259.61Z" transform="translate(-50 -123)"/></svg>